<?xml version="1.0" encoding="UTF-8"?>
<svg id="blob_2" data-name="blob 2" xmlns="http://www.w3.org/2000/svg" viewBox="0 0 1279.57 1054.18">
  <defs>
    <style>
      .cls-1 {
        fill: #293133;
        stroke: #000;
        stroke-miterlimit: 10;
      }
    </style>
  </defs>
  <path class="cls-1" d="m602.89,447.79c-133.73-5.24-267.32-32.79-394.15-74.93-23.28-7.73-47.17-16.5-64.7-33.67-18.5-18.11-27.85-43.71-32.52-69.17-5.38-29.37-5.14-60.38,5.4-88.32,11.87-31.48,36.2-57.2,64.51-75.38,28.31-18.18,60.54-29.38,93.05-38.01,71.57-19.01,146.73-26.31,220.1-16.3,73.37,10,144.9,37.75,202.81,83.9,34.12,27.19,63.77,61.31,79.72,101.92,15.95,40.61,16.98,88.2-3.17,126.9-39.43,75.75-139.46,95.17-216.45,79.38"/>
</svg>