<?xml version="1.0" encoding="UTF-8"?>
<svg id="Laag_1" data-name="Laag 1" xmlns="http://www.w3.org/2000/svg" viewBox="0 0 1279.57 1054.18">
  <defs>
    <style>
      .cls-1 {
        fill: none;
        opacity: .55;
        stroke: #fff;
      }

      .cls-1, .cls-2 {
        stroke-miterlimit: 10;
        stroke-width: 4px;
      }

      .cls-2 {
        fill: #9ba4b2;
        stroke: #000;
      }
    </style>
  </defs>
  <path class="cls-2" d="m765.73,795.15c-7.96-78.74,7.68-178.76-55.61-231.77-23.18-19.3-53.23-27.88-82.49-35.18-157.2-48.25-324.14-34.19-483.12-65.35C-112.46,386.1,20.27,95.53,211.56,29.07c295.45-95.59,610.02,78.1,828.84,269.37,630.46,555.34-185.49,1084.27-274.66,496.71Z"/>
  <path class="cls-1" d="m769.11,780.75c-7.81-76.88,7.54-174.53-54.59-226.29-22.75-18.84-52.25-27.22-80.97-34.35-154.3-47.1-318.16-33.38-474.21-63.81C-92.89,381.37,37.4,97.67,225.16,32.78c290-93.33,598.77,76.25,813.55,263,618.83,542.21-182.07,1058.63-269.59,484.96Z"/>
</svg>